<?xml version="1.0" standalone="no"?>
<!DOCTYPE svg PUBLIC "-//W3C//DTD SVG 20010904//EN"
 "http://www.w3.org/TR/2001/REC-SVG-20010904/DTD/svg10.dtd">
<svg version="1.0" xmlns="http://www.w3.org/2000/svg"
 width="940.000000pt" height="788.000000pt" viewBox="0 0 940.000000 788.000000"
 preserveAspectRatio="xMidYMid meet">

<g transform="translate(0.000000,788.000000) scale(0.100000,-0.100000)"
fill="#000000" stroke="none">
<path d="M5175 4506 c-146 -46 -288 -185 -380 -372 l-42 -85 -48 78 c-121 195
-202 284 -307 333 -78 37 -137 39 -199 7 -90 -48 -122 -176 -83 -336 23 -96
101 -253 174 -351 100 -134 306 -331 398 -379 14 -7 35 -10 50 -6 30 7 440
409 551 540 196 231 231 393 111 516 -63 66 -135 83 -225 55z"/>
<path d="M1461 4450 c-118 -28 -163 -175 -93 -310 l31 -60 -43 0 c-107 0 -253
58 -438 174 -77 48 -109 54 -122 21 -10 -27 5 -44 83 -94 212 -136 307 -171
474 -178 l119 -6 94 -63 c219 -146 426 -190 846 -181 269 6 366 16 758 82 406
68 574 58 774 -46 63 -33 100 -33 109 0 8 30 -11 48 -93 87 -141 67 -202 79
-410 79 -171 -1 -204 -4 -430 -42 -339 -58 -465 -73 -690 -80 -226 -7 -382 6
-527 42 -98 25 -254 94 -306 137 l-28 23 48 35 c101 74 137 173 95 257 -46 90
-158 145 -251 123z m108 -95 c37 -19 81 -71 81 -96 0 -46 -54 -111 -118 -143
-41 -21 -51 -14 -87 57 -51 103 -24 197 56 197 22 0 53 -7 68 -15z"/>
<path d="M7850 4451 c-65 -13 -136 -66 -167 -125 -20 -37 -19 -106 2 -150 17
-35 76 -96 124 -127 l24 -15 -74 -46 c-198 -123 -417 -166 -789 -155 -210 7
-344 21 -625 67 -323 53 -383 60 -514 60 -155 0 -271 -26 -405 -89 -71 -34
-86 -46 -86 -64 0 -26 17 -47 39 -47 8 0 51 18 96 39 198 98 346 103 785 31
96 -16 205 -34 241 -40 166 -26 367 -40 558 -40 314 0 470 29 656 120 55 27
124 67 153 89 l52 41 98 0 c158 0 294 49 490 176 86 56 102 76 85 103 -19 30
-42 23 -145 -42 -124 -77 -163 -97 -248 -126 -68 -24 -206 -41 -198 -25 45 93
52 117 56 171 9 134 -82 219 -208 194z m85 -87 c22 -9 45 -57 45 -96 0 -32
-35 -116 -63 -151 -16 -20 -33 -16 -90 21 -42 28 -77 78 -77 112 0 73 111 142
185 114z"/>
</g>
</svg>
